<mxfile host="Electron" modified="2024-05-15T12:11:02.070Z" agent="Mozilla/5.0 (Macintosh; Intel Mac OS X 10_15_7) AppleWebKit/537.36 (KHTML, like Gecko) draw.io/24.4.0 Chrome/120.0.6099.109 Electron/28.1.0 Safari/537.36" etag="A8jvvlTekSICQP8bLE2K" version="24.4.0" type="device">
  <diagram name="Trang-1" id="7AwT6P8bwlI1alhjCCo6">
    <mxGraphModel dx="2739" dy="2308" grid="1" gridSize="10" guides="1" tooltips="1" connect="1" arrows="1" fold="1" page="1" pageScale="1" pageWidth="827" pageHeight="1169" math="0" shadow="0">
      <root>
        <mxCell id="0" />
        <mxCell id="1" parent="0" />
        <mxCell id="zge68zDrHl2ibwkOqEpZ-89" style="edgeStyle=orthogonalEdgeStyle;rounded=1;orthogonalLoop=1;jettySize=auto;html=1;exitX=1;exitY=0.5;exitDx=0;exitDy=0;entryX=0;entryY=0.5;entryDx=0;entryDy=0;curved=0;" edge="1" parent="1" source="zge68zDrHl2ibwkOqEpZ-1" target="zge68zDrHl2ibwkOqEpZ-3">
          <mxGeometry relative="1" as="geometry" />
        </mxCell>
        <mxCell id="zge68zDrHl2ibwkOqEpZ-90" style="edgeStyle=orthogonalEdgeStyle;rounded=1;orthogonalLoop=1;jettySize=auto;html=1;exitX=1;exitY=0.5;exitDx=0;exitDy=0;entryX=0;entryY=0.5;entryDx=0;entryDy=0;curved=0;" edge="1" parent="1" source="zge68zDrHl2ibwkOqEpZ-1" target="zge68zDrHl2ibwkOqEpZ-11">
          <mxGeometry relative="1" as="geometry" />
        </mxCell>
        <mxCell id="zge68zDrHl2ibwkOqEpZ-91" style="edgeStyle=orthogonalEdgeStyle;rounded=1;orthogonalLoop=1;jettySize=auto;html=1;entryX=0;entryY=0.5;entryDx=0;entryDy=0;curved=0;" edge="1" parent="1" source="zge68zDrHl2ibwkOqEpZ-1" target="zge68zDrHl2ibwkOqEpZ-4">
          <mxGeometry relative="1" as="geometry" />
        </mxCell>
        <mxCell id="zge68zDrHl2ibwkOqEpZ-92" style="edgeStyle=orthogonalEdgeStyle;rounded=1;orthogonalLoop=1;jettySize=auto;html=1;entryX=0;entryY=0.5;entryDx=0;entryDy=0;curved=0;" edge="1" parent="1" source="zge68zDrHl2ibwkOqEpZ-1" target="zge68zDrHl2ibwkOqEpZ-2">
          <mxGeometry relative="1" as="geometry" />
        </mxCell>
        <mxCell id="zge68zDrHl2ibwkOqEpZ-93" style="edgeStyle=orthogonalEdgeStyle;rounded=1;orthogonalLoop=1;jettySize=auto;html=1;exitX=1;exitY=0.5;exitDx=0;exitDy=0;entryX=0;entryY=0.5;entryDx=0;entryDy=0;curved=0;" edge="1" parent="1" source="zge68zDrHl2ibwkOqEpZ-1" target="zge68zDrHl2ibwkOqEpZ-13">
          <mxGeometry relative="1" as="geometry" />
        </mxCell>
        <mxCell id="zge68zDrHl2ibwkOqEpZ-98" style="edgeStyle=orthogonalEdgeStyle;rounded=1;orthogonalLoop=1;jettySize=auto;html=1;exitX=1;exitY=0.5;exitDx=0;exitDy=0;entryX=0;entryY=0.5;entryDx=0;entryDy=0;curved=0;" edge="1" parent="1" source="zge68zDrHl2ibwkOqEpZ-1" target="zge68zDrHl2ibwkOqEpZ-10">
          <mxGeometry relative="1" as="geometry" />
        </mxCell>
        <mxCell id="zge68zDrHl2ibwkOqEpZ-118" style="edgeStyle=orthogonalEdgeStyle;rounded=1;orthogonalLoop=1;jettySize=auto;html=1;exitX=0;exitY=0.5;exitDx=0;exitDy=0;entryX=1;entryY=0.5;entryDx=0;entryDy=0;curved=0;" edge="1" parent="1" source="zge68zDrHl2ibwkOqEpZ-1" target="zge68zDrHl2ibwkOqEpZ-75">
          <mxGeometry relative="1" as="geometry" />
        </mxCell>
        <mxCell id="zge68zDrHl2ibwkOqEpZ-133" style="edgeStyle=orthogonalEdgeStyle;rounded=1;orthogonalLoop=1;jettySize=auto;html=1;entryX=1;entryY=0.5;entryDx=0;entryDy=0;curved=0;" edge="1" parent="1" source="zge68zDrHl2ibwkOqEpZ-1" target="zge68zDrHl2ibwkOqEpZ-40">
          <mxGeometry relative="1" as="geometry" />
        </mxCell>
        <mxCell id="zge68zDrHl2ibwkOqEpZ-1" value="&lt;p style=&quot;margin: 0px; font-variant-numeric: normal; font-variant-east-asian: normal; font-variant-alternates: normal; font-kerning: auto; font-optical-sizing: auto; font-feature-settings: normal; font-variation-settings: normal; font-variant-position: normal; font-stretch: normal; font-size: 13px; line-height: normal; font-family: &amp;quot;Helvetica Neue&amp;quot;; text-align: start;&quot; class=&quot;p1&quot;&gt;pokecat_pokebat&lt;/p&gt;" style="rounded=1;whiteSpace=wrap;html=1;" vertex="1" parent="1">
          <mxGeometry x="240" y="160" width="120" height="40" as="geometry" />
        </mxCell>
        <mxCell id="zge68zDrHl2ibwkOqEpZ-2" value="&lt;p style=&quot;margin: 0px; font-variant-numeric: normal; font-variant-east-asian: normal; font-variant-alternates: normal; font-kerning: auto; font-optical-sizing: auto; font-feature-settings: normal; font-variation-settings: normal; font-variant-position: normal; font-stretch: normal; font-size: 13px; line-height: normal; font-family: &amp;quot;Helvetica Neue&amp;quot;; text-align: start;&quot; class=&quot;p1&quot;&gt;README.md&lt;/p&gt;" style="rounded=1;whiteSpace=wrap;html=1;" vertex="1" parent="1">
          <mxGeometry x="440" y="-160" width="120" height="40" as="geometry" />
        </mxCell>
        <mxCell id="zge68zDrHl2ibwkOqEpZ-3" value="&lt;p style=&quot;margin: 0px; font-variant-numeric: normal; font-variant-east-asian: normal; font-variant-alternates: normal; font-kerning: auto; font-optical-sizing: auto; font-feature-settings: normal; font-variation-settings: normal; font-variant-position: normal; font-stretch: normal; font-size: 13px; line-height: normal; font-family: &amp;quot;Helvetica Neue&amp;quot;; text-align: start;&quot; class=&quot;p1&quot;&gt;go.mod&lt;/p&gt;" style="rounded=1;whiteSpace=wrap;html=1;" vertex="1" parent="1">
          <mxGeometry x="440" y="80" width="120" height="40" as="geometry" />
        </mxCell>
        <mxCell id="zge68zDrHl2ibwkOqEpZ-4" value="&lt;p style=&quot;margin: 0px; font-variant-numeric: normal; font-variant-east-asian: normal; font-variant-alternates: normal; font-kerning: auto; font-optical-sizing: auto; font-feature-settings: normal; font-variation-settings: normal; font-variant-position: normal; font-stretch: normal; font-size: 13px; line-height: normal; font-family: &amp;quot;Helvetica Neue&amp;quot;; text-align: start;&quot; class=&quot;p1&quot;&gt;main.go&lt;/p&gt;" style="rounded=1;whiteSpace=wrap;html=1;" vertex="1" parent="1">
          <mxGeometry x="440" y="-80" width="120" height="40" as="geometry" />
        </mxCell>
        <mxCell id="zge68zDrHl2ibwkOqEpZ-5" value="&lt;p style=&quot;margin: 0px; font-variant-numeric: normal; font-variant-east-asian: normal; font-variant-alternates: normal; font-kerning: auto; font-optical-sizing: auto; font-feature-settings: normal; font-variation-settings: normal; font-variant-position: normal; font-stretch: normal; font-size: 13px; line-height: normal; font-family: &amp;quot;Helvetica Neue&amp;quot;; text-align: start;&quot; class=&quot;p1&quot;&gt;battle_service.go&lt;/p&gt;" style="rounded=1;whiteSpace=wrap;html=1;" vertex="1" parent="1">
          <mxGeometry x="840" y="640" width="120" height="40" as="geometry" />
        </mxCell>
        <mxCell id="zge68zDrHl2ibwkOqEpZ-6" value="&lt;p style=&quot;margin: 0px; font-variant-numeric: normal; font-variant-east-asian: normal; font-variant-alternates: normal; font-kerning: auto; font-optical-sizing: auto; font-feature-settings: normal; font-variation-settings: normal; font-variant-position: normal; font-stretch: normal; font-size: 13px; line-height: normal; font-family: &amp;quot;Helvetica Neue&amp;quot;; text-align: start;&quot; class=&quot;p1&quot;&gt;main.go&lt;/p&gt;" style="rounded=1;whiteSpace=wrap;html=1;" vertex="1" parent="1">
          <mxGeometry x="840" y="240" width="120" height="40" as="geometry" />
        </mxCell>
        <mxCell id="zge68zDrHl2ibwkOqEpZ-103" style="edgeStyle=orthogonalEdgeStyle;rounded=1;orthogonalLoop=1;jettySize=auto;html=1;exitX=0;exitY=0.5;exitDx=0;exitDy=0;entryX=1;entryY=0.5;entryDx=0;entryDy=0;curved=0;" edge="1" parent="1" source="zge68zDrHl2ibwkOqEpZ-7" target="zge68zDrHl2ibwkOqEpZ-30">
          <mxGeometry relative="1" as="geometry" />
        </mxCell>
        <mxCell id="zge68zDrHl2ibwkOqEpZ-104" style="edgeStyle=orthogonalEdgeStyle;rounded=1;orthogonalLoop=1;jettySize=auto;html=1;exitX=0;exitY=0.5;exitDx=0;exitDy=0;entryX=1;entryY=0.5;entryDx=0;entryDy=0;curved=0;" edge="1" parent="1" source="zge68zDrHl2ibwkOqEpZ-7" target="zge68zDrHl2ibwkOqEpZ-32">
          <mxGeometry relative="1" as="geometry" />
        </mxCell>
        <mxCell id="zge68zDrHl2ibwkOqEpZ-105" style="edgeStyle=orthogonalEdgeStyle;rounded=1;orthogonalLoop=1;jettySize=auto;html=1;exitX=0;exitY=0.5;exitDx=0;exitDy=0;entryX=1;entryY=0.5;entryDx=0;entryDy=0;curved=0;" edge="1" parent="1" source="zge68zDrHl2ibwkOqEpZ-7" target="zge68zDrHl2ibwkOqEpZ-34">
          <mxGeometry relative="1" as="geometry" />
        </mxCell>
        <mxCell id="zge68zDrHl2ibwkOqEpZ-106" style="edgeStyle=orthogonalEdgeStyle;rounded=1;orthogonalLoop=1;jettySize=auto;html=1;exitX=0;exitY=0.5;exitDx=0;exitDy=0;entryX=1;entryY=0.5;entryDx=0;entryDy=0;curved=0;" edge="1" parent="1" source="zge68zDrHl2ibwkOqEpZ-7" target="zge68zDrHl2ibwkOqEpZ-36">
          <mxGeometry relative="1" as="geometry">
            <Array as="points">
              <mxPoint x="600" y="620" />
              <mxPoint x="600" y="700" />
            </Array>
          </mxGeometry>
        </mxCell>
        <mxCell id="zge68zDrHl2ibwkOqEpZ-107" style="edgeStyle=orthogonalEdgeStyle;rounded=1;orthogonalLoop=1;jettySize=auto;html=1;entryX=1;entryY=0.5;entryDx=0;entryDy=0;curved=0;" edge="1" parent="1" source="zge68zDrHl2ibwkOqEpZ-7" target="zge68zDrHl2ibwkOqEpZ-37">
          <mxGeometry relative="1" as="geometry">
            <Array as="points">
              <mxPoint x="600" y="620" />
              <mxPoint x="600" y="780" />
            </Array>
          </mxGeometry>
        </mxCell>
        <mxCell id="zge68zDrHl2ibwkOqEpZ-109" style="edgeStyle=orthogonalEdgeStyle;rounded=1;orthogonalLoop=1;jettySize=auto;html=1;exitX=1;exitY=0.5;exitDx=0;exitDy=0;entryX=0;entryY=0.5;entryDx=0;entryDy=0;curved=0;" edge="1" parent="1" source="zge68zDrHl2ibwkOqEpZ-7" target="zge68zDrHl2ibwkOqEpZ-5">
          <mxGeometry relative="1" as="geometry" />
        </mxCell>
        <mxCell id="zge68zDrHl2ibwkOqEpZ-110" style="edgeStyle=orthogonalEdgeStyle;rounded=1;orthogonalLoop=1;jettySize=auto;html=1;exitX=1;exitY=0.5;exitDx=0;exitDy=0;entryX=0;entryY=0.5;entryDx=0;entryDy=0;curved=0;" edge="1" parent="1" source="zge68zDrHl2ibwkOqEpZ-7" target="zge68zDrHl2ibwkOqEpZ-18">
          <mxGeometry relative="1" as="geometry" />
        </mxCell>
        <mxCell id="zge68zDrHl2ibwkOqEpZ-111" style="edgeStyle=orthogonalEdgeStyle;rounded=1;orthogonalLoop=1;jettySize=auto;html=1;entryX=0;entryY=0.5;entryDx=0;entryDy=0;curved=0;" edge="1" parent="1" source="zge68zDrHl2ibwkOqEpZ-7" target="zge68zDrHl2ibwkOqEpZ-24">
          <mxGeometry relative="1" as="geometry">
            <Array as="points">
              <mxPoint x="800" y="620" />
              <mxPoint x="800" y="700" />
            </Array>
          </mxGeometry>
        </mxCell>
        <mxCell id="zge68zDrHl2ibwkOqEpZ-112" style="edgeStyle=orthogonalEdgeStyle;rounded=1;orthogonalLoop=1;jettySize=auto;html=1;entryX=0;entryY=0.5;entryDx=0;entryDy=0;curved=0;" edge="1" parent="1" source="zge68zDrHl2ibwkOqEpZ-7" target="zge68zDrHl2ibwkOqEpZ-26">
          <mxGeometry relative="1" as="geometry">
            <Array as="points">
              <mxPoint x="800" y="620" />
              <mxPoint x="800" y="780" />
            </Array>
          </mxGeometry>
        </mxCell>
        <mxCell id="zge68zDrHl2ibwkOqEpZ-113" style="edgeStyle=orthogonalEdgeStyle;rounded=1;orthogonalLoop=1;jettySize=auto;html=1;entryX=0;entryY=0.5;entryDx=0;entryDy=0;curved=0;" edge="1" parent="1" source="zge68zDrHl2ibwkOqEpZ-7" target="zge68zDrHl2ibwkOqEpZ-20">
          <mxGeometry relative="1" as="geometry" />
        </mxCell>
        <mxCell id="zge68zDrHl2ibwkOqEpZ-114" style="edgeStyle=orthogonalEdgeStyle;rounded=1;orthogonalLoop=1;jettySize=auto;html=1;entryX=0;entryY=0.5;entryDx=0;entryDy=0;curved=0;" edge="1" parent="1" source="zge68zDrHl2ibwkOqEpZ-7" target="zge68zDrHl2ibwkOqEpZ-22">
          <mxGeometry relative="1" as="geometry" />
        </mxCell>
        <mxCell id="zge68zDrHl2ibwkOqEpZ-115" style="edgeStyle=orthogonalEdgeStyle;rounded=1;orthogonalLoop=1;jettySize=auto;html=1;entryX=0;entryY=0.5;entryDx=0;entryDy=0;curved=0;" edge="1" parent="1" source="zge68zDrHl2ibwkOqEpZ-7" target="zge68zDrHl2ibwkOqEpZ-28">
          <mxGeometry relative="1" as="geometry">
            <Array as="points">
              <mxPoint x="800" y="620" />
              <mxPoint x="800" y="860" />
            </Array>
          </mxGeometry>
        </mxCell>
        <mxCell id="zge68zDrHl2ibwkOqEpZ-7" value="&lt;p style=&quot;margin: 0px; font-variant-numeric: normal; font-variant-east-asian: normal; font-variant-alternates: normal; font-kerning: auto; font-optical-sizing: auto; font-feature-settings: normal; font-variation-settings: normal; font-variant-position: normal; font-stretch: normal; line-height: normal; text-align: start;&quot; class=&quot;p1&quot;&gt;&lt;font face=&quot;Helvetica Neue&quot;&gt;&lt;span style=&quot;font-size: 13px;&quot;&gt;service&lt;/span&gt;&lt;/font&gt;&lt;br&gt;&lt;/p&gt;" style="rounded=1;whiteSpace=wrap;html=1;" vertex="1" parent="1">
          <mxGeometry x="640" y="600" width="120" height="40" as="geometry" />
        </mxCell>
        <mxCell id="zge68zDrHl2ibwkOqEpZ-8" value="&lt;p style=&quot;margin: 0px; font-variant-numeric: normal; font-variant-east-asian: normal; font-variant-alternates: normal; font-kerning: auto; font-optical-sizing: auto; font-feature-settings: normal; font-variation-settings: normal; font-variant-position: normal; font-stretch: normal; font-size: 13px; line-height: normal; font-family: &amp;quot;Helvetica Neue&amp;quot;; text-align: start;&quot; class=&quot;p1&quot;&gt;player.go&lt;/p&gt;" style="rounded=1;whiteSpace=wrap;html=1;" vertex="1" parent="1">
          <mxGeometry x="840" y="520" width="120" height="40" as="geometry" />
        </mxCell>
        <mxCell id="zge68zDrHl2ibwkOqEpZ-99" style="edgeStyle=orthogonalEdgeStyle;rounded=1;orthogonalLoop=1;jettySize=auto;html=1;exitX=1;exitY=0.5;exitDx=0;exitDy=0;entryX=0;entryY=0.5;entryDx=0;entryDy=0;curved=0;" edge="1" parent="1" source="zge68zDrHl2ibwkOqEpZ-10" target="zge68zDrHl2ibwkOqEpZ-87">
          <mxGeometry relative="1" as="geometry" />
        </mxCell>
        <mxCell id="zge68zDrHl2ibwkOqEpZ-117" style="edgeStyle=orthogonalEdgeStyle;rounded=1;orthogonalLoop=1;jettySize=auto;html=1;exitX=1;exitY=0.5;exitDx=0;exitDy=0;entryX=0.5;entryY=0;entryDx=0;entryDy=0;curved=0;" edge="1" parent="1" source="zge68zDrHl2ibwkOqEpZ-10" target="zge68zDrHl2ibwkOqEpZ-7">
          <mxGeometry relative="1" as="geometry">
            <Array as="points">
              <mxPoint x="600" y="420" />
              <mxPoint x="600" y="560" />
              <mxPoint x="700" y="560" />
            </Array>
          </mxGeometry>
        </mxCell>
        <mxCell id="zge68zDrHl2ibwkOqEpZ-10" value="&lt;p style=&quot;margin: 0px; font-variant-numeric: normal; font-variant-east-asian: normal; font-variant-alternates: normal; font-kerning: auto; font-optical-sizing: auto; font-feature-settings: normal; font-variation-settings: normal; font-variant-position: normal; font-stretch: normal; line-height: normal; text-align: start;&quot; class=&quot;p1&quot;&gt;&lt;font face=&quot;Helvetica Neue&quot;&gt;&lt;span style=&quot;font-size: 13px;&quot;&gt;internal&lt;/span&gt;&lt;/font&gt;&lt;br&gt;&lt;/p&gt;" style="rounded=1;whiteSpace=wrap;html=1;" vertex="1" parent="1">
          <mxGeometry x="440" y="400" width="120" height="40" as="geometry" />
        </mxCell>
        <mxCell id="zge68zDrHl2ibwkOqEpZ-11" value="&lt;p style=&quot;margin: 0px; font-variant-numeric: normal; font-variant-east-asian: normal; font-variant-alternates: normal; font-kerning: auto; font-optical-sizing: auto; font-feature-settings: normal; font-variation-settings: normal; font-variant-position: normal; font-stretch: normal; font-size: 13px; line-height: normal; font-family: &amp;quot;Helvetica Neue&amp;quot;; text-align: start;&quot; class=&quot;p1&quot;&gt;go.sum&lt;/p&gt;" style="rounded=1;whiteSpace=wrap;html=1;" vertex="1" parent="1">
          <mxGeometry x="440" width="120" height="40" as="geometry" />
        </mxCell>
        <mxCell id="zge68zDrHl2ibwkOqEpZ-94" style="edgeStyle=orthogonalEdgeStyle;rounded=1;orthogonalLoop=1;jettySize=auto;html=1;exitX=1;exitY=0.5;exitDx=0;exitDy=0;entryX=0;entryY=0.5;entryDx=0;entryDy=0;curved=0;" edge="1" parent="1" source="zge68zDrHl2ibwkOqEpZ-13" target="zge68zDrHl2ibwkOqEpZ-14">
          <mxGeometry relative="1" as="geometry" />
        </mxCell>
        <mxCell id="zge68zDrHl2ibwkOqEpZ-97" style="edgeStyle=orthogonalEdgeStyle;rounded=1;orthogonalLoop=1;jettySize=auto;html=1;exitX=1;exitY=0.5;exitDx=0;exitDy=0;entryX=0;entryY=0.5;entryDx=0;entryDy=0;curved=0;" edge="1" parent="1" source="zge68zDrHl2ibwkOqEpZ-13" target="zge68zDrHl2ibwkOqEpZ-16">
          <mxGeometry relative="1" as="geometry" />
        </mxCell>
        <mxCell id="zge68zDrHl2ibwkOqEpZ-13" value="&lt;p style=&quot;margin: 0px; font-variant-numeric: normal; font-variant-east-asian: normal; font-variant-alternates: normal; font-kerning: auto; font-optical-sizing: auto; font-feature-settings: normal; font-variation-settings: normal; font-variant-position: normal; font-stretch: normal; font-size: 13px; line-height: normal; font-family: &amp;quot;Helvetica Neue&amp;quot;; text-align: start;&quot; class=&quot;p1&quot;&gt;cmd&lt;/p&gt;" style="rounded=1;whiteSpace=wrap;html=1;" vertex="1" parent="1">
          <mxGeometry x="440" y="200" width="120" height="40" as="geometry" />
        </mxCell>
        <mxCell id="zge68zDrHl2ibwkOqEpZ-95" value="" style="edgeStyle=orthogonalEdgeStyle;rounded=1;orthogonalLoop=1;jettySize=auto;html=1;curved=0;" edge="1" parent="1" source="zge68zDrHl2ibwkOqEpZ-14" target="zge68zDrHl2ibwkOqEpZ-6">
          <mxGeometry relative="1" as="geometry" />
        </mxCell>
        <mxCell id="zge68zDrHl2ibwkOqEpZ-14" value="&lt;p style=&quot;margin: 0px; font-variant-numeric: normal; font-variant-east-asian: normal; font-variant-alternates: normal; font-kerning: auto; font-optical-sizing: auto; font-feature-settings: normal; font-variation-settings: normal; font-variant-position: normal; font-stretch: normal; line-height: normal; text-align: start;&quot; class=&quot;p1&quot;&gt;&lt;font face=&quot;Helvetica Neue&quot;&gt;&lt;span style=&quot;font-size: 13px;&quot;&gt;pokecat&lt;/span&gt;&lt;/font&gt;&lt;br&gt;&lt;/p&gt;" style="rounded=1;whiteSpace=wrap;html=1;" vertex="1" parent="1">
          <mxGeometry x="640" y="240" width="120" height="40" as="geometry" />
        </mxCell>
        <mxCell id="zge68zDrHl2ibwkOqEpZ-15" value="&lt;p style=&quot;margin: 0px; font-variant-numeric: normal; font-variant-east-asian: normal; font-variant-alternates: normal; font-kerning: auto; font-optical-sizing: auto; font-feature-settings: normal; font-variation-settings: normal; font-variant-position: normal; font-stretch: normal; font-size: 13px; line-height: normal; font-family: &amp;quot;Helvetica Neue&amp;quot;; text-align: start;&quot; class=&quot;p1&quot;&gt;main.go&lt;/p&gt;" style="rounded=1;whiteSpace=wrap;html=1;" vertex="1" parent="1">
          <mxGeometry x="840" y="320" width="120" height="40" as="geometry" />
        </mxCell>
        <mxCell id="zge68zDrHl2ibwkOqEpZ-96" value="" style="edgeStyle=orthogonalEdgeStyle;rounded=1;orthogonalLoop=1;jettySize=auto;html=1;curved=0;" edge="1" parent="1" source="zge68zDrHl2ibwkOqEpZ-16" target="zge68zDrHl2ibwkOqEpZ-15">
          <mxGeometry relative="1" as="geometry" />
        </mxCell>
        <mxCell id="zge68zDrHl2ibwkOqEpZ-16" value="&lt;p style=&quot;margin: 0px; font-variant-numeric: normal; font-variant-east-asian: normal; font-variant-alternates: normal; font-kerning: auto; font-optical-sizing: auto; font-feature-settings: normal; font-variation-settings: normal; font-variant-position: normal; font-stretch: normal; line-height: normal; text-align: start;&quot; class=&quot;p1&quot;&gt;&lt;font face=&quot;Helvetica Neue&quot;&gt;&lt;span style=&quot;font-size: 13px;&quot;&gt;pokebat&lt;/span&gt;&lt;/font&gt;&lt;br&gt;&lt;/p&gt;" style="rounded=1;whiteSpace=wrap;html=1;" vertex="1" parent="1">
          <mxGeometry x="640" y="320" width="120" height="40" as="geometry" />
        </mxCell>
        <mxCell id="zge68zDrHl2ibwkOqEpZ-17" value="&lt;p style=&quot;margin: 0px; font-variant-numeric: normal; font-variant-east-asian: normal; font-variant-alternates: normal; font-kerning: auto; font-optical-sizing: auto; font-feature-settings: normal; font-variation-settings: normal; font-variant-position: normal; font-stretch: normal; font-size: 13px; line-height: normal; font-family: &amp;quot;Helvetica Neue&amp;quot;; text-align: start;&quot; class=&quot;p1&quot;&gt;pokemon.go&lt;/p&gt;" style="rounded=1;whiteSpace=wrap;html=1;" vertex="1" parent="1">
          <mxGeometry x="840" y="440" width="120" height="40" as="geometry" />
        </mxCell>
        <mxCell id="zge68zDrHl2ibwkOqEpZ-18" value="&lt;p style=&quot;margin: 0px; font-variant-numeric: normal; font-variant-east-asian: normal; font-variant-alternates: normal; font-kerning: auto; font-optical-sizing: auto; font-feature-settings: normal; font-variation-settings: normal; font-variant-position: normal; font-stretch: normal; font-size: 13px; line-height: normal; font-family: &amp;quot;Helvetica Neue&amp;quot;; text-align: start;&quot; class=&quot;p1&quot;&gt;damage_service.go&lt;/p&gt;" style="rounded=1;whiteSpace=wrap;html=1;" vertex="1" parent="1">
          <mxGeometry x="840" y="720" width="120" height="40" as="geometry" />
        </mxCell>
        <mxCell id="zge68zDrHl2ibwkOqEpZ-20" value="&lt;p style=&quot;margin: 0px; font-variant-numeric: normal; font-variant-east-asian: normal; font-variant-alternates: normal; font-kerning: auto; font-optical-sizing: auto; font-feature-settings: normal; font-variation-settings: normal; font-variant-position: normal; font-stretch: normal; font-size: 13px; line-height: normal; font-family: &amp;quot;Helvetica Neue&amp;quot;; text-align: start;&quot; class=&quot;p1&quot;&gt;attack_service.go&lt;/p&gt;" style="rounded=1;whiteSpace=wrap;html=1;" vertex="1" parent="1">
          <mxGeometry x="840" y="800" width="120" height="40" as="geometry" />
        </mxCell>
        <mxCell id="zge68zDrHl2ibwkOqEpZ-22" value="&lt;p style=&quot;margin: 0px; font-variant-numeric: normal; font-variant-east-asian: normal; font-variant-alternates: normal; font-kerning: auto; font-optical-sizing: auto; font-feature-settings: normal; font-variation-settings: normal; font-variant-position: normal; font-stretch: normal; font-size: 13px; line-height: normal; font-family: &amp;quot;Helvetica Neue&amp;quot;; text-align: start;&quot; class=&quot;p1&quot;&gt;network_service.go&lt;/p&gt;" style="rounded=1;whiteSpace=wrap;html=1;" vertex="1" parent="1">
          <mxGeometry x="840" y="880" width="120" height="40" as="geometry" />
        </mxCell>
        <mxCell id="zge68zDrHl2ibwkOqEpZ-24" value="&lt;p style=&quot;margin: 0px; font-variant-numeric: normal; font-variant-east-asian: normal; font-variant-alternates: normal; font-kerning: auto; font-optical-sizing: auto; font-feature-settings: normal; font-variation-settings: normal; font-variant-position: normal; font-stretch: normal; font-size: 13px; line-height: normal; font-family: &amp;quot;Helvetica Neue&amp;quot;; text-align: start;&quot; class=&quot;p1&quot;&gt;world_service.go&lt;/p&gt;" style="rounded=1;whiteSpace=wrap;html=1;" vertex="1" parent="1">
          <mxGeometry x="1040" y="680" width="120" height="40" as="geometry" />
        </mxCell>
        <mxCell id="zge68zDrHl2ibwkOqEpZ-26" value="&lt;p style=&quot;margin: 0px; font-variant-numeric: normal; font-variant-east-asian: normal; font-variant-alternates: normal; font-kerning: auto; font-optical-sizing: auto; font-feature-settings: normal; font-variation-settings: normal; font-variant-position: normal; font-stretch: normal; font-size: 13px; line-height: normal; font-family: &amp;quot;Helvetica Neue&amp;quot;; text-align: start;&quot; class=&quot;p1&quot;&gt;movement_service.go&lt;/p&gt;" style="rounded=1;whiteSpace=wrap;html=1;" vertex="1" parent="1">
          <mxGeometry x="1040" y="760" width="140" height="40" as="geometry" />
        </mxCell>
        <mxCell id="zge68zDrHl2ibwkOqEpZ-28" value="&lt;p style=&quot;margin: 0px; font-variant-numeric: normal; font-variant-east-asian: normal; font-variant-alternates: normal; font-kerning: auto; font-optical-sizing: auto; font-feature-settings: normal; font-variation-settings: normal; font-variant-position: normal; font-stretch: normal; font-size: 13px; line-height: normal; font-family: &amp;quot;Helvetica Neue&amp;quot;; text-align: start;&quot; class=&quot;p1&quot;&gt;auto_move_service.go&lt;/p&gt;" style="rounded=1;whiteSpace=wrap;html=1;" vertex="1" parent="1">
          <mxGeometry x="1040" y="840" width="140" height="40" as="geometry" />
        </mxCell>
        <mxCell id="zge68zDrHl2ibwkOqEpZ-30" value="&lt;p style=&quot;margin: 0px; font-variant-numeric: normal; font-variant-east-asian: normal; font-variant-alternates: normal; font-kerning: auto; font-optical-sizing: auto; font-feature-settings: normal; font-variation-settings: normal; font-variant-position: normal; font-stretch: normal; font-size: 13px; line-height: normal; font-family: &amp;quot;Helvetica Neue&amp;quot;; text-align: start;&quot; class=&quot;p1&quot;&gt;spawner_service.go&lt;/p&gt;" style="rounded=1;whiteSpace=wrap;html=1;" vertex="1" parent="1">
          <mxGeometry x="420" y="640" width="140" height="40" as="geometry" />
        </mxCell>
        <mxCell id="zge68zDrHl2ibwkOqEpZ-32" value="&lt;p style=&quot;margin: 0px; font-variant-numeric: normal; font-variant-east-asian: normal; font-variant-alternates: normal; font-kerning: auto; font-optical-sizing: auto; font-feature-settings: normal; font-variation-settings: normal; font-variant-position: normal; font-stretch: normal; font-size: 13px; line-height: normal; font-family: &amp;quot;Helvetica Neue&amp;quot;; text-align: start;&quot; class=&quot;p1&quot;&gt;despawn_service.go&lt;/p&gt;" style="rounded=1;whiteSpace=wrap;html=1;" vertex="1" parent="1">
          <mxGeometry x="420" y="720" width="140" height="40" as="geometry" />
        </mxCell>
        <mxCell id="zge68zDrHl2ibwkOqEpZ-34" value="&lt;p style=&quot;margin: 0px; font-variant-numeric: normal; font-variant-east-asian: normal; font-variant-alternates: normal; font-kerning: auto; font-optical-sizing: auto; font-feature-settings: normal; font-variation-settings: normal; font-variant-position: normal; font-stretch: normal; font-size: 13px; line-height: normal; font-family: &amp;quot;Helvetica Neue&amp;quot;; text-align: start;&quot; class=&quot;p1&quot;&gt;capture_service.go&lt;/p&gt;" style="rounded=1;whiteSpace=wrap;html=1;" vertex="1" parent="1">
          <mxGeometry x="420" y="800" width="140" height="40" as="geometry" />
        </mxCell>
        <mxCell id="zge68zDrHl2ibwkOqEpZ-36" value="&lt;p style=&quot;margin: 0px; font-variant-numeric: normal; font-variant-east-asian: normal; font-variant-alternates: normal; font-kerning: auto; font-optical-sizing: auto; font-feature-settings: normal; font-variation-settings: normal; font-variant-position: normal; font-stretch: normal; font-size: 13px; line-height: normal; font-family: &amp;quot;Helvetica Neue&amp;quot;; text-align: start;&quot; class=&quot;p1&quot;&gt;pokemon_list_service.go&lt;/p&gt;" style="rounded=1;whiteSpace=wrap;html=1;" vertex="1" parent="1">
          <mxGeometry x="190" y="680" width="150" height="40" as="geometry" />
        </mxCell>
        <mxCell id="zge68zDrHl2ibwkOqEpZ-37" value="&lt;p style=&quot;margin: 0px; font-variant-numeric: normal; font-variant-east-asian: normal; font-variant-alternates: normal; font-kerning: auto; font-optical-sizing: auto; font-feature-settings: normal; font-variation-settings: normal; font-variant-position: normal; font-stretch: normal; font-size: 13px; line-height: normal; font-family: &amp;quot;Helvetica Neue&amp;quot;; text-align: start;&quot; class=&quot;p1&quot;&gt;evolution_service.go&lt;/p&gt;" style="rounded=1;whiteSpace=wrap;html=1;" vertex="1" parent="1">
          <mxGeometry x="200" y="760" width="140" height="40" as="geometry" />
        </mxCell>
        <mxCell id="zge68zDrHl2ibwkOqEpZ-38" value="&lt;p style=&quot;margin: 0px; font-variant-numeric: normal; font-variant-east-asian: normal; font-variant-alternates: normal; font-kerning: auto; font-optical-sizing: auto; font-feature-settings: normal; font-variation-settings: normal; font-variant-position: normal; font-stretch: normal; font-size: 13px; line-height: normal; font-family: &amp;quot;Helvetica Neue&amp;quot;; text-align: start;&quot; class=&quot;p1&quot;&gt;pokestops_service.go&lt;/p&gt;" style="rounded=1;whiteSpace=wrap;html=1;" vertex="1" parent="1">
          <mxGeometry x="200" y="840" width="140" height="40" as="geometry" />
        </mxCell>
        <mxCell id="zge68zDrHl2ibwkOqEpZ-125" style="edgeStyle=orthogonalEdgeStyle;rounded=1;orthogonalLoop=1;jettySize=auto;html=1;entryX=1;entryY=0.5;entryDx=0;entryDy=0;curved=0;" edge="1" parent="1" source="zge68zDrHl2ibwkOqEpZ-40" target="zge68zDrHl2ibwkOqEpZ-43">
          <mxGeometry relative="1" as="geometry" />
        </mxCell>
        <mxCell id="zge68zDrHl2ibwkOqEpZ-126" style="edgeStyle=orthogonalEdgeStyle;rounded=1;orthogonalLoop=1;jettySize=auto;html=1;entryX=1;entryY=0.5;entryDx=0;entryDy=0;curved=0;" edge="1" parent="1" source="zge68zDrHl2ibwkOqEpZ-40" target="zge68zDrHl2ibwkOqEpZ-47">
          <mxGeometry relative="1" as="geometry" />
        </mxCell>
        <mxCell id="zge68zDrHl2ibwkOqEpZ-127" style="edgeStyle=orthogonalEdgeStyle;rounded=1;orthogonalLoop=1;jettySize=auto;html=1;entryX=1;entryY=0.5;entryDx=0;entryDy=0;curved=0;" edge="1" parent="1" source="zge68zDrHl2ibwkOqEpZ-40" target="zge68zDrHl2ibwkOqEpZ-49">
          <mxGeometry relative="1" as="geometry">
            <Array as="points">
              <mxPoint y="220" />
              <mxPoint y="300" />
            </Array>
          </mxGeometry>
        </mxCell>
        <mxCell id="zge68zDrHl2ibwkOqEpZ-128" style="edgeStyle=orthogonalEdgeStyle;rounded=1;orthogonalLoop=1;jettySize=auto;html=1;entryX=1;entryY=0.5;entryDx=0;entryDy=0;curved=0;" edge="1" parent="1" source="zge68zDrHl2ibwkOqEpZ-40" target="zge68zDrHl2ibwkOqEpZ-51">
          <mxGeometry relative="1" as="geometry">
            <Array as="points">
              <mxPoint y="220" />
              <mxPoint y="380" />
            </Array>
          </mxGeometry>
        </mxCell>
        <mxCell id="zge68zDrHl2ibwkOqEpZ-129" style="edgeStyle=orthogonalEdgeStyle;rounded=1;orthogonalLoop=1;jettySize=auto;html=1;entryX=1;entryY=0.5;entryDx=0;entryDy=0;curved=0;" edge="1" parent="1" source="zge68zDrHl2ibwkOqEpZ-40" target="zge68zDrHl2ibwkOqEpZ-45">
          <mxGeometry relative="1" as="geometry" />
        </mxCell>
        <mxCell id="zge68zDrHl2ibwkOqEpZ-40" value="&lt;p style=&quot;margin: 0px; font-variant-numeric: normal; font-variant-east-asian: normal; font-variant-alternates: normal; font-kerning: auto; font-optical-sizing: auto; font-feature-settings: normal; font-variation-settings: normal; font-variant-position: normal; font-stretch: normal; line-height: normal; text-align: start;&quot; class=&quot;p1&quot;&gt;&lt;font face=&quot;Helvetica Neue&quot;&gt;&lt;span style=&quot;font-size: 13px;&quot;&gt;controller&lt;/span&gt;&lt;/font&gt;&lt;br&gt;&lt;/p&gt;" style="rounded=1;whiteSpace=wrap;html=1;" vertex="1" parent="1">
          <mxGeometry x="40" y="200" width="120" height="40" as="geometry" />
        </mxCell>
        <mxCell id="zge68zDrHl2ibwkOqEpZ-43" value="&lt;p style=&quot;margin: 0px; font-variant-numeric: normal; font-variant-east-asian: normal; font-variant-alternates: normal; font-kerning: auto; font-optical-sizing: auto; font-feature-settings: normal; font-variation-settings: normal; font-variant-position: normal; font-stretch: normal; line-height: normal; text-align: start;&quot; class=&quot;p1&quot;&gt;&lt;font face=&quot;Helvetica Neue&quot;&gt;&lt;span style=&quot;font-size: 13px;&quot;&gt;battle_controller.go&lt;/span&gt;&lt;/font&gt;&lt;br&gt;&lt;/p&gt;" style="rounded=1;whiteSpace=wrap;html=1;" vertex="1" parent="1">
          <mxGeometry x="-160" y="240" width="120" height="40" as="geometry" />
        </mxCell>
        <mxCell id="zge68zDrHl2ibwkOqEpZ-45" value="&lt;p style=&quot;margin: 0px; font-variant-numeric: normal; font-variant-east-asian: normal; font-variant-alternates: normal; font-kerning: auto; font-optical-sizing: auto; font-feature-settings: normal; font-variation-settings: normal; font-variant-position: normal; font-stretch: normal; line-height: normal; text-align: start;&quot; class=&quot;p1&quot;&gt;&lt;font face=&quot;Helvetica Neue&quot;&gt;&lt;span style=&quot;font-size: 13px;&quot;&gt;network_controller.go&lt;/span&gt;&lt;/font&gt;&lt;br&gt;&lt;/p&gt;" style="rounded=1;whiteSpace=wrap;html=1;" vertex="1" parent="1">
          <mxGeometry x="-180" y="400" width="140" height="40" as="geometry" />
        </mxCell>
        <mxCell id="zge68zDrHl2ibwkOqEpZ-47" value="&lt;p style=&quot;margin: 0px; font-variant-numeric: normal; font-variant-east-asian: normal; font-variant-alternates: normal; font-kerning: auto; font-optical-sizing: auto; font-feature-settings: normal; font-variation-settings: normal; font-variant-position: normal; font-stretch: normal; line-height: normal; text-align: start;&quot; class=&quot;p1&quot;&gt;&lt;font face=&quot;Helvetica Neue&quot;&gt;&lt;span style=&quot;font-size: 13px;&quot;&gt;world_controller.go&lt;/span&gt;&lt;/font&gt;&lt;br&gt;&lt;/p&gt;" style="rounded=1;whiteSpace=wrap;html=1;" vertex="1" parent="1">
          <mxGeometry x="-160" y="320" width="120" height="40" as="geometry" />
        </mxCell>
        <mxCell id="zge68zDrHl2ibwkOqEpZ-49" value="&lt;p style=&quot;margin: 0px; font-variant-numeric: normal; font-variant-east-asian: normal; font-variant-alternates: normal; font-kerning: auto; font-optical-sizing: auto; font-feature-settings: normal; font-variation-settings: normal; font-variant-position: normal; font-stretch: normal; line-height: normal; text-align: start;&quot; class=&quot;p1&quot;&gt;&lt;font face=&quot;Helvetica Neue&quot;&gt;&lt;span style=&quot;font-size: 13px;&quot;&gt;player_interaction_controller.go&lt;/span&gt;&lt;/font&gt;&lt;br&gt;&lt;/p&gt;" style="rounded=1;whiteSpace=wrap;html=1;" vertex="1" parent="1">
          <mxGeometry x="-440" y="280" width="200" height="40" as="geometry" />
        </mxCell>
        <mxCell id="zge68zDrHl2ibwkOqEpZ-51" value="&lt;p style=&quot;margin: 0px; font-variant-numeric: normal; font-variant-east-asian: normal; font-variant-alternates: normal; font-kerning: auto; font-optical-sizing: auto; font-feature-settings: normal; font-variation-settings: normal; font-variant-position: normal; font-stretch: normal; line-height: normal; text-align: start;&quot; class=&quot;p1&quot;&gt;&lt;font face=&quot;Helvetica Neue&quot;&gt;&lt;span style=&quot;font-size: 13px;&quot;&gt;feature_controller.go&lt;/span&gt;&lt;/font&gt;&lt;br&gt;&lt;/p&gt;" style="rounded=1;whiteSpace=wrap;html=1;" vertex="1" parent="1">
          <mxGeometry x="-360" y="360" width="120" height="40" as="geometry" />
        </mxCell>
        <mxCell id="zge68zDrHl2ibwkOqEpZ-130" style="edgeStyle=orthogonalEdgeStyle;rounded=1;orthogonalLoop=1;jettySize=auto;html=1;entryX=1;entryY=0.5;entryDx=0;entryDy=0;curved=0;" edge="1" parent="1" source="zge68zDrHl2ibwkOqEpZ-69" target="zge68zDrHl2ibwkOqEpZ-70">
          <mxGeometry relative="1" as="geometry" />
        </mxCell>
        <mxCell id="zge68zDrHl2ibwkOqEpZ-131" style="edgeStyle=orthogonalEdgeStyle;rounded=1;orthogonalLoop=1;jettySize=auto;html=1;exitX=0;exitY=0.5;exitDx=0;exitDy=0;entryX=1;entryY=0.5;entryDx=0;entryDy=0;curved=0;" edge="1" parent="1" source="zge68zDrHl2ibwkOqEpZ-69" target="zge68zDrHl2ibwkOqEpZ-71">
          <mxGeometry relative="1" as="geometry" />
        </mxCell>
        <mxCell id="zge68zDrHl2ibwkOqEpZ-69" value="&lt;p style=&quot;margin: 0px; font-variant-numeric: normal; font-variant-east-asian: normal; font-variant-alternates: normal; font-kerning: auto; font-optical-sizing: auto; font-feature-settings: normal; font-variation-settings: normal; font-variant-position: normal; font-stretch: normal; line-height: normal; text-align: start;&quot; class=&quot;p1&quot;&gt;&lt;font face=&quot;Helvetica Neue&quot;&gt;&lt;span style=&quot;font-size: 13px;&quot;&gt;data&lt;/span&gt;&lt;/font&gt;&lt;br&gt;&lt;/p&gt;" style="rounded=1;whiteSpace=wrap;html=1;" vertex="1" parent="1">
          <mxGeometry x="40" y="520" width="120" height="40" as="geometry" />
        </mxCell>
        <mxCell id="zge68zDrHl2ibwkOqEpZ-70" value="&lt;p style=&quot;margin: 0px; font-variant-numeric: normal; font-variant-east-asian: normal; font-variant-alternates: normal; font-kerning: auto; font-optical-sizing: auto; font-feature-settings: normal; font-variation-settings: normal; font-variant-position: normal; font-stretch: normal; line-height: normal; text-align: start;&quot; class=&quot;p1&quot;&gt;&lt;font face=&quot;Helvetica Neue&quot;&gt;&lt;span style=&quot;font-size: 13px;&quot;&gt;pokedex.json&lt;/span&gt;&lt;/font&gt;&lt;br&gt;&lt;/p&gt;" style="rounded=1;whiteSpace=wrap;html=1;" vertex="1" parent="1">
          <mxGeometry x="-160" y="520" width="120" height="40" as="geometry" />
        </mxCell>
        <mxCell id="zge68zDrHl2ibwkOqEpZ-132" style="edgeStyle=orthogonalEdgeStyle;rounded=1;orthogonalLoop=1;jettySize=auto;html=1;entryX=1;entryY=0.5;entryDx=0;entryDy=0;curved=0;" edge="1" parent="1" source="zge68zDrHl2ibwkOqEpZ-71" target="zge68zDrHl2ibwkOqEpZ-72">
          <mxGeometry relative="1" as="geometry" />
        </mxCell>
        <mxCell id="zge68zDrHl2ibwkOqEpZ-71" value="&lt;p style=&quot;margin: 0px; font-variant-numeric: normal; font-variant-east-asian: normal; font-variant-alternates: normal; font-kerning: auto; font-optical-sizing: auto; font-feature-settings: normal; font-variation-settings: normal; font-variant-position: normal; font-stretch: normal; line-height: normal; text-align: start;&quot; class=&quot;p1&quot;&gt;&lt;font face=&quot;Helvetica Neue&quot;&gt;&lt;span style=&quot;font-size: 13px;&quot;&gt;players&lt;/span&gt;&lt;/font&gt;&lt;br&gt;&lt;/p&gt;" style="rounded=1;whiteSpace=wrap;html=1;" vertex="1" parent="1">
          <mxGeometry x="-160" y="600" width="120" height="40" as="geometry" />
        </mxCell>
        <mxCell id="zge68zDrHl2ibwkOqEpZ-72" value="&lt;p style=&quot;margin: 0px; font-variant-numeric: normal; font-variant-east-asian: normal; font-variant-alternates: normal; font-kerning: auto; font-optical-sizing: auto; font-feature-settings: normal; font-variation-settings: normal; font-variant-position: normal; font-stretch: normal; line-height: normal; text-align: start;&quot; class=&quot;p1&quot;&gt;&lt;font face=&quot;Helvetica Neue&quot;&gt;&lt;span style=&quot;font-size: 13px;&quot;&gt;player_data.json&lt;/span&gt;&lt;/font&gt;&lt;br&gt;&lt;/p&gt;" style="rounded=1;whiteSpace=wrap;html=1;" vertex="1" parent="1">
          <mxGeometry x="-360" y="600" width="120" height="40" as="geometry" />
        </mxCell>
        <mxCell id="zge68zDrHl2ibwkOqEpZ-119" style="edgeStyle=orthogonalEdgeStyle;rounded=1;orthogonalLoop=1;jettySize=auto;html=1;exitX=0;exitY=0.5;exitDx=0;exitDy=0;entryX=1;entryY=0.5;entryDx=0;entryDy=0;curved=0;" edge="1" parent="1" source="zge68zDrHl2ibwkOqEpZ-75" target="zge68zDrHl2ibwkOqEpZ-85">
          <mxGeometry relative="1" as="geometry" />
        </mxCell>
        <mxCell id="zge68zDrHl2ibwkOqEpZ-120" style="edgeStyle=orthogonalEdgeStyle;rounded=1;orthogonalLoop=1;jettySize=auto;html=1;entryX=1;entryY=0.5;entryDx=0;entryDy=0;curved=0;" edge="1" parent="1" source="zge68zDrHl2ibwkOqEpZ-75" target="zge68zDrHl2ibwkOqEpZ-81">
          <mxGeometry relative="1" as="geometry" />
        </mxCell>
        <mxCell id="zge68zDrHl2ibwkOqEpZ-121" style="edgeStyle=orthogonalEdgeStyle;rounded=1;orthogonalLoop=1;jettySize=auto;html=1;entryX=1;entryY=0.5;entryDx=0;entryDy=0;curved=0;" edge="1" parent="1" source="zge68zDrHl2ibwkOqEpZ-75" target="zge68zDrHl2ibwkOqEpZ-79">
          <mxGeometry relative="1" as="geometry" />
        </mxCell>
        <mxCell id="zge68zDrHl2ibwkOqEpZ-122" style="edgeStyle=orthogonalEdgeStyle;rounded=1;orthogonalLoop=1;jettySize=auto;html=1;entryX=1;entryY=0.5;entryDx=0;entryDy=0;curved=0;" edge="1" parent="1" source="zge68zDrHl2ibwkOqEpZ-75" target="zge68zDrHl2ibwkOqEpZ-77">
          <mxGeometry relative="1" as="geometry" />
        </mxCell>
        <mxCell id="zge68zDrHl2ibwkOqEpZ-123" style="edgeStyle=orthogonalEdgeStyle;rounded=1;orthogonalLoop=1;jettySize=auto;html=1;entryX=1;entryY=0.5;entryDx=0;entryDy=0;curved=0;" edge="1" parent="1" source="zge68zDrHl2ibwkOqEpZ-75" target="zge68zDrHl2ibwkOqEpZ-83">
          <mxGeometry relative="1" as="geometry">
            <Array as="points">
              <mxPoint y="100" />
              <mxPoint y="-60" />
            </Array>
          </mxGeometry>
        </mxCell>
        <mxCell id="zge68zDrHl2ibwkOqEpZ-124" style="edgeStyle=orthogonalEdgeStyle;rounded=1;orthogonalLoop=1;jettySize=auto;html=1;entryX=1;entryY=0.5;entryDx=0;entryDy=0;curved=0;" edge="1" parent="1" source="zge68zDrHl2ibwkOqEpZ-75" target="zge68zDrHl2ibwkOqEpZ-76">
          <mxGeometry relative="1" as="geometry">
            <Array as="points">
              <mxPoint y="100" />
              <mxPoint y="-140" />
            </Array>
          </mxGeometry>
        </mxCell>
        <mxCell id="zge68zDrHl2ibwkOqEpZ-75" value="&lt;p style=&quot;margin: 0px; font-variant-numeric: normal; font-variant-east-asian: normal; font-variant-alternates: normal; font-kerning: auto; font-optical-sizing: auto; font-feature-settings: normal; font-variation-settings: normal; font-variant-position: normal; font-stretch: normal; line-height: normal; text-align: start;&quot; class=&quot;p1&quot;&gt;&lt;font face=&quot;Helvetica Neue&quot;&gt;&lt;span style=&quot;font-size: 13px;&quot;&gt;tests&lt;/span&gt;&lt;/font&gt;&lt;br&gt;&lt;/p&gt;" style="rounded=1;whiteSpace=wrap;html=1;" vertex="1" parent="1">
          <mxGeometry x="40" y="80" width="120" height="40" as="geometry" />
        </mxCell>
        <mxCell id="zge68zDrHl2ibwkOqEpZ-76" value="&lt;p style=&quot;margin: 0px; font-variant-numeric: normal; font-variant-east-asian: normal; font-variant-alternates: normal; font-kerning: auto; font-optical-sizing: auto; font-feature-settings: normal; font-variation-settings: normal; font-variant-position: normal; font-stretch: normal; line-height: normal; text-align: start;&quot; class=&quot;p1&quot;&gt;&lt;font face=&quot;Helvetica Neue&quot;&gt;&lt;span style=&quot;font-size: 13px;&quot;&gt;battle_service_tests.go&lt;/span&gt;&lt;/font&gt;&lt;br&gt;&lt;/p&gt;" style="rounded=1;whiteSpace=wrap;html=1;" vertex="1" parent="1">
          <mxGeometry x="-420" y="-160" width="180" height="40" as="geometry" />
        </mxCell>
        <mxCell id="zge68zDrHl2ibwkOqEpZ-77" value="&lt;p style=&quot;margin: 0px; font-variant-numeric: normal; font-variant-east-asian: normal; font-variant-alternates: normal; font-kerning: auto; font-optical-sizing: auto; font-feature-settings: normal; font-variation-settings: normal; font-variant-position: normal; font-stretch: normal; line-height: normal; text-align: start;&quot; class=&quot;p1&quot;&gt;&lt;font face=&quot;Helvetica Neue&quot;&gt;&lt;span style=&quot;font-size: 13px;&quot;&gt;network_service_tests.go&lt;/span&gt;&lt;/font&gt;&lt;br&gt;&lt;/p&gt;" style="rounded=1;whiteSpace=wrap;html=1;" vertex="1" parent="1">
          <mxGeometry x="-220" y="-200" width="180" height="40" as="geometry" />
        </mxCell>
        <mxCell id="zge68zDrHl2ibwkOqEpZ-79" value="&lt;p style=&quot;margin: 0px; font-variant-numeric: normal; font-variant-east-asian: normal; font-variant-alternates: normal; font-kerning: auto; font-optical-sizing: auto; font-feature-settings: normal; font-variation-settings: normal; font-variant-position: normal; font-stretch: normal; line-height: normal; text-align: start;&quot; class=&quot;p1&quot;&gt;&lt;font face=&quot;Helvetica Neue&quot;&gt;&lt;span style=&quot;font-size: 13px;&quot;&gt;world_service_tests.go&lt;/span&gt;&lt;/font&gt;&lt;br&gt;&lt;/p&gt;" style="rounded=1;whiteSpace=wrap;html=1;" vertex="1" parent="1">
          <mxGeometry x="-220" y="-120" width="180" height="40" as="geometry" />
        </mxCell>
        <mxCell id="zge68zDrHl2ibwkOqEpZ-81" value="&lt;p style=&quot;margin: 0px; font-variant-numeric: normal; font-variant-east-asian: normal; font-variant-alternates: normal; font-kerning: auto; font-optical-sizing: auto; font-feature-settings: normal; font-variation-settings: normal; font-variant-position: normal; font-stretch: normal; line-height: normal; text-align: start;&quot; class=&quot;p1&quot;&gt;&lt;font face=&quot;Helvetica Neue&quot;&gt;&lt;span style=&quot;font-size: 13px;&quot;&gt;spawning_service_tests.go&lt;/span&gt;&lt;/font&gt;&lt;br&gt;&lt;/p&gt;" style="rounded=1;whiteSpace=wrap;html=1;" vertex="1" parent="1">
          <mxGeometry x="-220" y="-40" width="180" height="40" as="geometry" />
        </mxCell>
        <mxCell id="zge68zDrHl2ibwkOqEpZ-83" value="&lt;p style=&quot;margin: 0px; font-variant-numeric: normal; font-variant-east-asian: normal; font-variant-alternates: normal; font-kerning: auto; font-optical-sizing: auto; font-feature-settings: normal; font-variation-settings: normal; font-variant-position: normal; font-stretch: normal; line-height: normal; text-align: start;&quot; class=&quot;p1&quot;&gt;&lt;font face=&quot;Helvetica Neue&quot;&gt;&lt;span style=&quot;font-size: 13px;&quot;&gt;player_interaction_service_tests.go&lt;/span&gt;&lt;/font&gt;&lt;br&gt;&lt;/p&gt;" style="rounded=1;whiteSpace=wrap;html=1;" vertex="1" parent="1">
          <mxGeometry x="-460" y="-80" width="220" height="40" as="geometry" />
        </mxCell>
        <mxCell id="zge68zDrHl2ibwkOqEpZ-85" value="&lt;p style=&quot;margin: 0px; font-variant-numeric: normal; font-variant-east-asian: normal; font-variant-alternates: normal; font-kerning: auto; font-optical-sizing: auto; font-feature-settings: normal; font-variation-settings: normal; font-variant-position: normal; font-stretch: normal; line-height: normal; text-align: start;&quot; class=&quot;p1&quot;&gt;&lt;font face=&quot;Helvetica Neue&quot;&gt;&lt;span style=&quot;font-size: 13px;&quot;&gt;features_service_tests.go&lt;/span&gt;&lt;/font&gt;&lt;br&gt;&lt;/p&gt;" style="rounded=1;whiteSpace=wrap;html=1;" vertex="1" parent="1">
          <mxGeometry x="-220" y="40" width="180" height="40" as="geometry" />
        </mxCell>
        <mxCell id="zge68zDrHl2ibwkOqEpZ-100" style="edgeStyle=orthogonalEdgeStyle;rounded=1;orthogonalLoop=1;jettySize=auto;html=1;exitX=1;exitY=0.5;exitDx=0;exitDy=0;entryX=0;entryY=0.5;entryDx=0;entryDy=0;curved=0;" edge="1" parent="1" source="zge68zDrHl2ibwkOqEpZ-87" target="zge68zDrHl2ibwkOqEpZ-17">
          <mxGeometry relative="1" as="geometry" />
        </mxCell>
        <mxCell id="zge68zDrHl2ibwkOqEpZ-101" style="edgeStyle=orthogonalEdgeStyle;rounded=1;orthogonalLoop=1;jettySize=auto;html=1;exitX=1;exitY=0.5;exitDx=0;exitDy=0;entryX=0;entryY=0.5;entryDx=0;entryDy=0;curved=0;" edge="1" parent="1" source="zge68zDrHl2ibwkOqEpZ-87" target="zge68zDrHl2ibwkOqEpZ-8">
          <mxGeometry relative="1" as="geometry" />
        </mxCell>
        <mxCell id="zge68zDrHl2ibwkOqEpZ-87" value="&lt;p style=&quot;margin: 0px; font-variant-numeric: normal; font-variant-east-asian: normal; font-variant-alternates: normal; font-kerning: auto; font-optical-sizing: auto; font-feature-settings: normal; font-variation-settings: normal; font-variant-position: normal; font-stretch: normal; line-height: normal; text-align: start;&quot; class=&quot;p1&quot;&gt;&lt;font face=&quot;Helvetica Neue&quot;&gt;&lt;span style=&quot;font-size: 13px;&quot;&gt;model&lt;/span&gt;&lt;/font&gt;&lt;br&gt;&lt;/p&gt;" style="rounded=1;whiteSpace=wrap;html=1;" vertex="1" parent="1">
          <mxGeometry x="640" y="440" width="120" height="40" as="geometry" />
        </mxCell>
        <mxCell id="zge68zDrHl2ibwkOqEpZ-108" style="edgeStyle=orthogonalEdgeStyle;rounded=1;orthogonalLoop=1;jettySize=auto;html=1;entryX=1.01;entryY=0.588;entryDx=0;entryDy=0;entryPerimeter=0;curved=0;" edge="1" parent="1" source="zge68zDrHl2ibwkOqEpZ-7" target="zge68zDrHl2ibwkOqEpZ-38">
          <mxGeometry relative="1" as="geometry">
            <Array as="points">
              <mxPoint x="600" y="620" />
              <mxPoint x="600" y="863" />
            </Array>
          </mxGeometry>
        </mxCell>
      </root>
    </mxGraphModel>
  </diagram>
</mxfile>
